<?xml version="1.0" encoding="UTF-8"?>
<svg id="Layer_1" data-name="Layer 1" xmlns="http://www.w3.org/2000/svg" version="1.1" viewBox="0 0 63 61">
  <defs>
    <style>
      .cls-1 {
        fill: #f50;
        fill-rule: evenodd;
        stroke-width: 0px;
      }
    </style>
  </defs>
  <path class="cls-1" d="M0,33.1c0-.2,0-.3.1-.4l8.8-16.5c0-.2.2-.3.4-.4.1,0,.3-.1.4-.1h26.8c.5-4.8,4.5-8.6,9.5-8.6s9.6,4.3,9.6,9.6-2.8,7.9-6.7,9.1l3.8,6.9c0,.1.1.3.1.4v26c0,.5-.4.9-.9.9H.9c-.5,0-.9-.4-.9-.9v-26ZM9.7,18.6l-7.3,13.6h14.5l-7.2-13.6ZM42.3,17.6H11.2l7.8,14.6h31.3l-8-14.6ZM48,24.2c3.3-.9,5.8-3.9,5.8-7.5s-3.5-7.7-7.7-7.7-7.2,3-7.7,6.8h4.5c.3,0,.6.2.8.5l4.3,7.9ZM50.9,58.2v-24.2h-31.6v24.2h31.6ZM14.1,58.2h3.5v-24.2H1.8v24.2h3.5v-15.2c0-.5.4-.9.9-.9h7c.5,0,.9.4.9.9v15.2ZM7.1,58.2h5.1v-14.2h-5.1v14.2ZM46.9,31.1h-26.7c-.3,0-.6-.2-.8-.5l-5.6-10.6c-.1-.3-.1-.6,0-.9.2-.3.5-.4.8-.4h26.5c.3,0,.6.2.8.5l5.8,10.6c.2.3.1.6,0,.9-.2.3-.5.4-.8.4ZM20.6,20.5h-4.5l.7,1.4h4.6l-.8-1.4ZM17.8,23.7l1,1.9h4.8l-1.1-1.9h-4.7ZM19.7,27.4l1,1.9h5l-1.1-1.9h-4.9ZM27.2,20.5h-4.5l.8,1.4h4.5l-.8-1.4ZM33.6,20.5h-4.3l.8,1.4h4.3l-.8-1.4ZM40.7,29.3h4.6l-1-1.9h-4.7l1.1,1.9ZM43.3,25.6l-1-1.9h-4.8l1.1,1.9h4.7ZM41.3,21.9l-.8-1.4h-4.8l.8,1.4h4.8ZM34.2,29.3h4.4l-1.1-1.9h-4.4l1.1,1.9ZM27.8,29.3h4.3l-1.1-1.9h-4.4l1.1,1.9ZM24.5,23.7l1.1,1.9h4.4l-1-1.9h-4.5ZM35.4,23.7h-4.4l1,1.9h4.4l-1.1-1.9ZM33.3,49.1h-11.5c-.5,0-.9-.4-.9-.9v-10.3c0-.5.4-.9.9-.9h11.5c.5,0,.9.4.9.9v10.3c0,.5-.4.9-.9.9ZM24.1,38.8h-1.3v8.5h1.3v-8.5ZM25.9,47.3h6.5v-8.5h-6.5v8.5ZM48.4,49.1h-11c-.5,0-.9-.4-.9-.9v-10.3c0-.5.4-.9.9-.9h11c.5,0,.9.4.9.9v10.3c0,.5-.4.9-.9.9ZM39.8,38.8h-1.5v8.5h1.5v-8.5ZM41.6,47.3h5.9v-8.5h-5.9v8.5ZM45.1.9c0-.5.4-.9.9-.9s.9.4.9.9v3.9c0,.5-.4.9-.9.9s-.9-.4-.9-.9V.9ZM56.5,4.9c.4-.4.9-.4,1.3,0,.4.4.4.9,0,1.3l-2.7,2.7c-.4.4-.9.4-1.3,0-.4-.4-.4-.9,0-1.3l2.7-2.7ZM61.8,15.8c.5,0,.9.4.9.9s-.4.9-.9.9h-3.9c-.5,0-.9-.4-.9-.9s.4-.9.9-.9h3.9ZM57.8,27.2c.4.4.4.9,0,1.3s-.9.4-1.3,0l-2.7-2.7c-.4-.4-.4-.9,0-1.3.4-.4.9-.4,1.3,0l2.7,2.7ZM34.2,6.2c-.4-.4-.4-.9,0-1.3.4-.4.9-.4,1.3,0l2.7,2.7c.4.4.4.9,0,1.3-.4.4-.9.4-1.3,0l-2.7-2.7Z"/>
</svg>