<?xml version="1.0" encoding="UTF-8"?>
<svg id="Layer_1" data-name="Layer 1" xmlns="http://www.w3.org/2000/svg" version="1.1" viewBox="0 0 58 60">
  <defs>
    <style>
      .cls-1 {
        fill: #f50;
        fill-rule: evenodd;
        stroke-width: 0px;
      }
    </style>
  </defs>
  <path class="cls-1" d="M28.7,18.4c5.7,0,10.9,2.3,14.7,6.1,3.8,3.8,6.1,9,6.1,14.7s-2.3,10.9-6.1,14.7c-3.8,3.8-9,6.1-14.7,6.1s-10.9-2.3-14.7-6.1c-3.8-3.8-6.1-9-6.1-14.7s2.3-10.9,6.1-14.7c3.8-3.8,9-6.1,14.7-6.1ZM8.9,7.1c0-.3-.3-.5-.5-.5-.4-.1-.9.1-1.1.5l-1.5,4.7H.9c-.3,0-.6,0-.7.3-.3.4-.2.9.2,1.2l4,2.9-1.5,4.7h0c0,.2,0,.5.1.8.3.4.8.5,1.2.2l4-2.9,3.9,2.9c.2.2.5.3.8.2.4-.1.7-.6.5-1.1l-1.5-4.7,4-2.9h0c.2-.2.3-.4.3-.7,0-.5-.4-.8-.8-.8h-4.9s-1.5-4.7-1.5-4.7ZM9,12.8l-.9-2.8-.9,2.8c-.1.3-.4.6-.8.6h-2.9s2.4,1.7,2.4,1.7c.3.2.4.6.3.9l-.9,2.8,2.4-1.7c.3-.2.7-.2,1,0l2.4,1.7-.9-2.8c-.1-.3,0-.7.3-1l2.4-1.7h-2.9c-.4,0-.7-.2-.8-.6ZM50,7.1c0-.3-.3-.5-.5-.5-.4-.1-.9.1-1.1.5l-1.5,4.7h-4.9c-.3,0-.6,0-.7.3-.3.4-.2.9.2,1.2l4,2.9-1.5,4.7h0c0,.2,0,.5.1.8.3.4.8.5,1.2.2l4-2.9,3.9,2.9c.2.2.5.3.8.2.4-.1.7-.6.5-1.1l-1.5-4.7,4-2.9h0c.2-.2.3-.4.3-.7,0-.5-.4-.8-.8-.8h-4.9s-1.5-4.7-1.5-4.7ZM50.1,12.8l-.9-2.8-.9,2.8c-.1.3-.4.6-.8.6h-2.9s2.4,1.7,2.4,1.7c.3.2.4.6.3.9l-.9,2.8,2.4-1.7c.3-.2.7-.2,1,0l2.4,1.7-.9-2.8c-.1-.3,0-.7.3-1l2.4-1.7h-2.9c-.4,0-.7-.2-.8-.6ZM29.5.6l1.5,4.7h4.9c.5,0,.8.4.8.8s-.1.5-.3.7h0s-4,2.9-4,2.9l1.5,4.7c.1.4,0,.9-.5,1.1-.3,0-.6,0-.8-.2l-3.9-2.9-4,2.9c-.4.3-.9.2-1.2-.2-.2-.2-.2-.5-.1-.8h0s1.5-4.7,1.5-4.7l-4-2.9c-.4-.3-.5-.8-.2-1.2.2-.2.5-.4.7-.3h4.9s1.5-4.7,1.5-4.7c.1-.4.6-.7,1.1-.5.3,0,.5.3.5.5ZM29.6,6.4l-.9-2.8-.9,2.8c-.1.3-.4.6-.8.6h-2.9s2.4,1.7,2.4,1.7c.3.2.4.6.3.9l-.9,2.8,2.4-1.7c.3-.2.7-.2,1,0l2.4,1.7-.9-2.8c-.1-.3,0-.7.3-1l2.4-1.7h-2.9c-.4,0-.7-.2-.8-.6ZM24.1,35.8v10.9h10.9c.4,0,.7-.1,1-.3.3-.2.4-.5.5-.9l1.6-7.9c0-.2,0-.5,0-.7,0-.2-.2-.4-.3-.6-.1-.2-.3-.3-.5-.4-.2,0-.4-.1-.7-.1h-5.7c-.5,0-.8-.4-.8-.8s0-.2,0-.3l.2-.5c.9-2.6,1.4-4,.1-5.1-.1-.1-.3-.2-.4-.2-.1,0-.3,0-.5,0-.2,0-.3.1-.4.2-.1,0-.2.2-.3.4l-2.3,5.4c-.5,1.1-1.5,1.2-2.5,1.1ZM22.4,47.4v-12.4c-.2-.9-1.7-1.1-1.7.5v11.6c0,1.4,1.3,1.6,1.7.3ZM35,48.4c.8,0,1.5-.3,2-.7.6-.5.9-1.1,1.1-1.8l1.6-7.9c0-.5,0-1,0-1.4-.1-.4-.3-.9-.6-1.2-.3-.4-.7-.7-1.1-.9s-.9-.3-1.4-.3h-4.6c1-2.9,1.5-4.6-.5-6.4-.3-.3-.7-.5-1.1-.6-.4-.1-.8-.1-1.3,0-.4,0-.8.3-1.1.6-.3.3-.6.6-.8,1l-2.3,5.4c0,.1-.7.1-1.2,0-1.1-2.4-4.8-1.9-4.8,1.4v11.6c0,3.1,3.6,3.9,4.8,1.3h11.2ZM28.7,21.9c-4.8,0-9.1,1.9-12.2,5.1-3.1,3.1-5.1,7.4-5.1,12.2s1.9,9.1,5.1,12.2c3.1,3.1,7.4,5.1,12.2,5.1s9.1-1.9,12.2-5.1c3.1-3.1,5.1-7.4,5.1-12.2s-1.9-9.1-5.1-12.2c-3.1-3.1-7.4-5.1-12.2-5.1ZM39.7,28.2c-2.8-2.8-6.7-4.6-11-4.6s-8.2,1.7-11,4.6c-2.8,2.8-4.6,6.7-4.6,11s1.7,8.2,4.6,11c2.8,2.8,6.7,4.6,11,4.6s8.2-1.7,11-4.6c2.8-2.8,4.6-6.7,4.6-11s-1.7-8.2-4.6-11ZM42.2,25.7c-3.5-3.5-8.2-5.6-13.5-5.6s-10,2.1-13.5,5.6c-3.5,3.5-5.6,8.2-5.6,13.5s2.1,10,5.6,13.5c3.5,3.5,8.2,5.6,13.5,5.6s10-2.1,13.5-5.6,5.6-8.2,5.6-13.5-2.1-10-5.6-13.5Z"/>
</svg>