<?xml version="1.0" encoding="UTF-8"?>
<svg id="Layer_2" data-name="Layer 2" xmlns="http://www.w3.org/2000/svg" viewBox="0 0 59.93 60.03">
  <defs>
    <style>
      .cls-1 {
        fill: #f50;
        stroke-width: 0px;
      }
    </style>
  </defs>
  <g id="Layer_1-2" data-name="Layer 1">
    <g>
      <path class="cls-1" d="M33.98,60.03h-7.93c-.36,0-.67-.27-.72-.62l-.8-5.59c-2.58-.59-5.13-1.66-7.44-3.1l-4.53,3.37c-.29.21-.69.19-.95-.07l-5.61-5.61c-.25-.25-.28-.66-.07-.95l3.37-4.53c-1.49-2.37-2.53-4.87-3.11-7.44l-5.59-.8c-.36-.05-.62-.36-.62-.72v-7.93c0-.36.27-.67.62-.72l5.6-.8c.69-2.78,1.71-5.22,3.09-7.44l-3.37-4.53c-.22-.29-.19-.69.07-.95l5.61-5.61c.25-.25.66-.28.95-.07l4.53,3.37c2.31-1.44,4.86-2.51,7.44-3.1l.8-5.59c.05-.36.36-.62.72-.62h7.93c.36,0,.67.27.72.62l.8,5.59c2.57.58,5.07,1.62,7.44,3.11l4.53-3.37c.29-.22.69-.19.95.07l5.61,5.61c.25.25.28.66.07.95l-3.37,4.53c1.49,2.37,2.53,4.87,3.11,7.44l5.49.8c.36.05.62.36.62.72v7.93c0,.36-.26.67-.62.72l-5.5.8c-.59,2.58-1.66,5.13-3.1,7.44l3.37,4.53c.21.29.19.69-.07.95l-5.61,5.61c-.25.25-.66.28-.95.07l-4.53-3.37c-2.37,1.49-4.87,2.53-7.44,3.11l-.8,5.59c-.05.36-.36.62-.72.62ZM26.68,58.58h6.67l.78-5.47c.04-.3.27-.55.58-.61,2.72-.54,5.37-1.65,7.87-3.28.25-.17.59-.16.83.03l4.43,3.3,4.72-4.72-3.3-4.43c-.18-.24-.19-.58-.03-.83,1.58-2.42,2.72-5.14,3.28-7.87.06-.3.3-.53.61-.57l5.37-.78v-6.67l-5.37-.78c-.3-.04-.55-.27-.61-.58-.54-2.72-1.65-5.37-3.28-7.87-.17-.25-.16-.59.03-.83l3.3-4.43-4.72-4.72-4.43,3.3c-.24.18-.58.19-.83.03-2.49-1.63-5.14-2.73-7.87-3.28-.3-.06-.53-.3-.58-.61l-.78-5.47h-6.67l-.78,5.47c-.04.3-.27.55-.57.61-2.73.57-5.45,1.7-7.87,3.28-.25.17-.59.16-.83-.03l-4.43-3.3-4.72,4.72,3.3,4.43c.18.24.19.58.03.83-1.51,2.31-2.58,4.89-3.28,7.89-.07.29-.31.51-.6.55l-5.47.78v6.67l5.47.78c.3.04.55.27.61.58.54,2.72,1.65,5.37,3.28,7.87.17.25.16.59-.03.83l-3.3,4.43,4.72,4.72,4.43-3.3c.24-.18.58-.19.83-.03,2.42,1.58,5.14,2.72,7.87,3.28.3.06.53.3.57.61l.78,5.47ZM59.21,33.98h0,0Z"/>
      <g>
        <g>
          <path class="cls-1" d="M21.99,42.53c-.4,0-.73-.32-.73-.73v-5.22c0-3.23,2.53-5.75,5.75-5.75.6,0,1.01-.38,1.01-.92v-.58c0-.4.32-.73.73-.73s.73.32.73.73v.58c0,1.35-1.06,2.37-2.46,2.37-2.41,0-4.3,1.89-4.3,4.3v5.22c0,.4-.32.73-.73.73Z"/>
          <path class="cls-1" d="M38.04,42.53c-.4,0-.73-.32-.73-.73v-5.22c0-1.18-.44-2.27-1.24-3.06-.76-.76-1.94-1.24-3.06-1.24-1.41,0-2.46-1.02-2.46-2.37v-.58c0-.4.32-.73.73-.73s.73.32.73.73v.58c0,.54.42.92,1.01.92,1.5,0,3.06.64,4.09,1.66,1.07,1.07,1.66,2.52,1.66,4.09v5.22c0,.4-.32.73-.73.73Z"/>
          <path class="cls-1" d="M30.01,36.73c-.4,0-.73-.32-.73-.73v-.48c0-.4.32-.73.73-.73s.73.32.73.73v.48c0,.4-.32.73-.73.73Z"/>
          <path class="cls-1" d="M30.01,39.34c-.4,0-.73-.32-.73-.73v-.48c0-.4.32-.73.73-.73s.73.32.73.73v.48c0,.4-.32.73-.73.73Z"/>
          <path class="cls-1" d="M30.01,41.95c-.4,0-.73-.32-.73-.73v-.39c0-.4.32-.73.73-.73s.73.32.73.73v.39c0,.4-.32.73-.73.73Z"/>
        </g>
        <path class="cls-1" d="M26.05,24.55h-1.64c-.79,0-1.4-.62-1.4-1.4v-2.71c0-.95.79-1.79,1.69-1.79h.08c.27-.74.95-1.26,1.76-1.26h6.48c1.56,0,2.53-1.09,2.54-1.1.17-.2.44-.29.7-.24.26.05.47.24.55.5.13.42,1.24,4.2-.28,6.26-.42.57-1.24,1.25-2.73,1.25-.4,0-.73-.32-.73-.73s.32-.73.73-.73c.72,0,1.23-.22,1.56-.66.68-.92.55-2.66.32-3.9-.62.4-1.53.79-2.66.79h-6.48c-.28,0-.44.27-.44.53,0,.4-.32.73-.73.73h-.68c-.06,0-.24.14-.24.34v2.66h1.6c.4,0,.73.32.73.73s-.32.73-.73.73Z"/>
        <path class="cls-1" d="M30.01,30.26c-2.36,0-4.2-1.89-4.2-4.3v-3.77c0-.4.32-.73.73-.73s.73.32.73.73v3.77c0,1.6,1.21,2.85,2.75,2.85s2.76-1.28,2.76-2.85v-3.77c0-.4.32-.73.73-.73s.73.32.73.73v3.77c0,2.37-1.89,4.3-4.21,4.3Z"/>
        <path class="cls-1" d="M30.6,24.12c-2.25,0-4.39-1.23-4.53-1.31-.35-.2-.46-.65-.26-.99.2-.35.65-.46.99-.26.04.02,4.16,2.37,6.15.14.27-.3.73-.32,1.02-.06.3.27.32.73.06,1.02-.98,1.09-2.22,1.45-3.43,1.45Z"/>
        <g>
          <path class="cls-1" d="M34.85,43.98c-.4,0-.73-.32-.73-.73v-6.28c0-.4.32-.73.73-.73s.73.32.73.73v6.28c0,.4-.32.73-.73.73Z"/>
          <path class="cls-1" d="M25.18,43.98c-.4,0-.73-.32-.73-.73v-6.28c0-.4.32-.73.73-.73s.73.32.73.73v6.28c0,.4-.32.73-.73.73Z"/>
        </g>
      </g>
      <g>
        <g>
          <path class="cls-1" d="M30.01,13.73c-.4,0-.73-.32-.73-.73v-5.99c0-.4.32-.73.73-.73s.73.32.73.73v5.99c0,.4-.32.73-.73.73Z"/>
          <path class="cls-1" d="M30.01,13.73c-.19,0-.38-.08-.51-.21l-2.13-2.13c-.28-.28-.28-.74,0-1.03s.74-.28,1.03,0l1.61,1.61,1.61-1.61c.28-.28.74-.28,1.03,0s.28.74,0,1.03l-2.13,2.13c-.14.14-.32.21-.51.21Z"/>
        </g>
        <g>
          <path class="cls-1" d="M30.01,53.75c-.4,0-.73-.32-.73-.73v-5.99c0-.4.32-.73.73-.73s.73.32.73.73v5.99c0,.4-.32.73-.73.73Z"/>
          <path class="cls-1" d="M27.89,49.88c-.19,0-.37-.07-.51-.21-.28-.28-.28-.74,0-1.03l2.13-2.13c.28-.28.74-.28,1.03,0l2.13,2.13c.28.28.28.74,0,1.03-.28.28-.74.28-1.03,0l-1.61-1.61-1.61,1.61c-.14.14-.33.21-.51.21Z"/>
        </g>
      </g>
      <g>
        <g>
          <path class="cls-1" d="M53.02,30.74h-5.99c-.4,0-.73-.32-.73-.73s.32-.73.73-.73h5.99c.4,0,.73.32.73.73s-.32.73-.73.73Z"/>
          <path class="cls-1" d="M49.16,32.87c-.19,0-.37-.07-.51-.21l-2.13-2.13c-.14-.14-.21-.32-.21-.51s.08-.38.21-.51l2.13-2.13c.28-.28.74-.28,1.03,0s.28.74,0,1.03l-1.61,1.61,1.61,1.61c.28.28.28.74,0,1.03-.14.14-.33.21-.51.21Z"/>
        </g>
        <g>
          <path class="cls-1" d="M13,30.74h-5.9c-.4,0-.73-.32-.73-.73s.32-.73.73-.73h5.9c.4,0,.73.32.73.73s-.32.73-.73.73Z"/>
          <path class="cls-1" d="M10.88,32.87c-.19,0-.37-.07-.51-.21-.28-.28-.28-.74,0-1.03l1.61-1.61-1.61-1.61c-.28-.28-.28-.74,0-1.03.28-.28.74-.28,1.03,0l2.13,2.13c.14.14.21.32.21.51s-.08.38-.21.51l-2.13,2.13c-.14.14-.33.21-.51.21Z"/>
        </g>
      </g>
      <g>
        <g>
          <path class="cls-1" d="M42,18.75c-.19,0-.37-.07-.51-.21-.28-.28-.28-.74,0-1.03l4.25-4.25c.28-.28.74-.28,1.03,0s.28.74,0,1.03l-4.25,4.25c-.14.14-.33.21-.51.21Z"/>
          <path class="cls-1" d="M45,18.75h-3c-.4,0-.73-.32-.73-.73v-3c0-.4.32-.73.73-.73s.73.32.73.73v2.27h2.27c.4,0,.73.32.73.73s-.32.73-.73.73Z"/>
        </g>
        <g>
          <path class="cls-1" d="M13.78,46.98c-.19,0-.37-.07-.51-.21-.28-.28-.28-.74,0-1.03l4.25-4.25c.28-.28.74-.28,1.03,0,.28.28.28.74,0,1.03l-4.25,4.25c-.14.14-.33.21-.51.21Z"/>
          <path class="cls-1" d="M18.03,45.72c-.4,0-.73-.32-.73-.73v-2.27h-2.27c-.4,0-.73-.32-.73-.73s.32-.73.73-.73h3c.4,0,.73.32.73.73v3c0,.4-.32.73-.73.73Z"/>
        </g>
      </g>
      <g>
        <g>
          <path class="cls-1" d="M46.26,46.98c-.19,0-.37-.07-.51-.21l-4.25-4.25c-.28-.28-.28-.74,0-1.03.28-.28.74-.28,1.03,0l4.25,4.25c.28.28.28.74,0,1.03-.14.14-.33.21-.51.21Z"/>
          <path class="cls-1" d="M42,45.72c-.4,0-.73-.32-.73-.73v-3c0-.4.32-.73.73-.73h3c.4,0,.73.32.73.73s-.32.73-.73.73h-2.27v2.27c0,.4-.32.73-.73.73Z"/>
        </g>
        <g>
          <path class="cls-1" d="M18.03,18.75c-.19,0-.37-.07-.51-.21l-4.25-4.25c-.28-.28-.28-.74,0-1.03s.74-.28,1.03,0l4.25,4.25c.28.28.28.74,0,1.03-.14.14-.33.21-.51.21Z"/>
          <path class="cls-1" d="M18.03,18.75h-3c-.4,0-.73-.32-.73-.73s.32-.73.73-.73h2.27v-2.27c0-.4.32-.73.73-.73s.73.32.73.73v3c0,.4-.32.73-.73.73Z"/>
        </g>
      </g>
    </g>
  </g>
</svg>